<?xml version="1.0" encoding="UTF-8" standalone="no"?>
<svg width="57px" height="52px" viewBox="0 0 57 52" version="1.1" xmlns="http://www.w3.org/2000/svg" xmlns:xlink="http://www.w3.org/1999/xlink" xmlns:sketch="http://www.bohemiancoding.com/sketch/ns">
    <!-- Generator: Sketch 3.2.2 (9983) - http://www.bohemiancoding.com/sketch -->
    <title>Fill 1</title>
    <desc>Created with Sketch.</desc>
    <defs></defs>
    <g id="Page-2" stroke="none" stroke-width="1" fill="none" fill-rule="evenodd" sketch:type="MSPage">
        <g id="Desktop-HD" sketch:type="MSArtboardGroup" transform="translate(-392.000000, -63.000000)" fill="#4A4A4A">
            <g id="Group" sketch:type="MSLayerGroup" transform="translate(392.000000, 63.000000)">
                <g id="Imported-Layers" sketch:type="MSShapeGroup">
                    <path d="M29.0020714,0.410230769 L21.0726429,14.1802308 L36.9315,14.1802308 L29.0020714,0.410230769 Z M32.0077143,41.0078462 L30.7835,38.8852308 L19.43,19.1648462 L0.720857143,51.6562308 L7.12985714,51.6562308 L19.43,30.2971538 L31.7301429,51.6562308 L38.1391429,51.6562308 L32.0077143,41.0078462 Z M30.1620714,33.0823077 L32.8238571,37.7034615 L33.3665714,38.6463846 L38.1743571,30.2950769 L50.4745,51.6562308 L56.8835,51.6562308 L38.1743571,19.1648462 L30.1620714,33.0823077 Z M24.2377857,43.3672308 L23.6163571,44.4493077 L19.4672857,51.6562308 L25.8762857,51.6562308 L27.4422857,48.9333846 L24.2377857,43.3672308 Z" id="Fill-1"></path>
                </g>
            </g>
        </g>
    </g>
</svg>